# xmcd
#
# Track frame offsets:
#       150
#       32730
#       46618
#       75177
#       97322
#       117866
#       133316
#       156349
#       173360
#       188871
#       206415
#       229397
#       244140
#       258964
#       280102
#       296915
#
# Disc length: 4319 seconds
#
# Revision: 0
# Processed by: cddbd v1.4PL0 Copyright (c) Steve Scherf et al.
# Submitted via: CD-DA_X-Tractor v0.21
#
DISCID=de10dd10
DTITLE=Freddy Washington - Greatest Hits
DYEAR=1900
DGENRE=
TTITLE0=God is still working on me
TTITLE1=I will trust in the lord
TTITLE2=God's got it
TTITLE3=Give me oil in me lamp
TTITLE4=Lord do it for me
TTITLE5=God is real
TTITLE6=Just a closer walk
TTITLE7=Sweepin through that city
TTITLE8=On the way to Zion
TTITLE9=Storm has almost gone
TTITLE10=Follow peace
TTITLE11=Couldn't keep it to myself
TTITLE12=Praise him
TTITLE13=Allright
TTITLE14=Glory to his name
TTITLE15=How majestic (Swiss Kids)
EXTD=
EXTT0=
EXTT1=
EXTT2=
EXTT3=
EXTT4=
EXTT5=
EXTT6=
EXTT7=
EXTT8=
EXTT9=
EXTT10=
EXTT11=
EXTT12=
EXTT13=
EXTT14=
EXTT15=
PLAYORDER=
